<svg width="24" height="24" xmlns="http://www.w3.org/2000/svg" viewBox="0 0 636.72 636.72">
  <g fill="currentColor" transform="translate(28.75 0)">
    <path d="M172.63,516.24c-24.46,30.69-48.57,61.66-73.38,92.06-9.71,11.89-21.28,22.05-36.68,26.47-26.17,7.5-53.93-7.3-60.79-32.66-4.22-15.58-.85-30.14,9.47-42.04,14.6-16.83,30-33.02,45.74-48.8,39.06-39.17,78.51-77.95,117.8-116.9.56-.55,1.06-1.15,1.75-1.95.33-.38.33-.96-.01-1.33-15.02-16.44-27.43-34.28-36.99-54.06-11.88-24.57-19.21-50.38-21.46-77.62-4.41-53.37,6.66-103.14,36.21-147.96C192.41,53.6,245.54,16.8,313.98,4.46c74.65-13.45,142.43,3.5,202.13,50.7,17.98,14.22,33.33,31.1,46.23,50.12.93,1.37,1.8,2.79,2.65,4.22,5.96,10.06,5.01,18.05-2.86,24.38-7.9,6.35-18.75,6.08-26.25-1.58-6.73-6.88-12.39-14.79-18.95-21.86-32.63-35.19-72.08-58.34-119.75-66.18-59.42-9.77-113.76,2.45-161.13,40.29-36.21,28.92-60.7,65.89-69.55,111.88-10.69,55.54,2.34,105.79,36.8,150.32,29.87,38.6,69.56,61.96,117.39,70.21,62.29,10.74,118.04-5.12,166-46.15,24.44-20.91,41.09-47.61,51.56-78.11,5.03-14.66,18.29-19.87,30.8-12.35,7.32,4.4,11.51,14.25,9.77,22.88-4.85,24-15.56,45.44-29.72,65.08-36.97,51.28-86.44,83.21-148.95,93.95-58.84,10.11-114.65,1.55-166.67-28.59-.19-.11-.4-.17-.78-.29-.4-.12-.84,0-1.09.34"/>
    <path d="M439.32,319.87c-.4,1.08.33,2.26,1.47,2.36,6.96.61,12.43-1.44,17.87-4.31,6.25-3.3,12.56-6.72,19.24-8.88,6.27-2.03,11.87.84,14.59,5.72,2.98,5.35,2.34,11.83-1.95,16.66-6.16,6.94-14.7,8.54-23.27,9.89-13.09,2.06-26.52,3.07-38.48,9.26-5.78,3-10.94,7.43-15.84,11.81-2.01,1.8-3.15,5.08-3.73,7.88-1.13,5.46,2.73,9.06,8.22,7.98,2.26-.44,4.45-1.31,6.59-2.19,7.04-2.88,14.09-3.62,21.28-.6,4.42,1.85,8.65,1.18,12.09-1.98,9.33-8.55,19.94-8.47,31.08-6.07,1.12.24,1.74,1.48,1.21,2.5-13.09,25.59-73.68,59.28-113.93,63.41-63.45,6.52-116.79-12.39-159.17-59.43l2.04-2.76h0c9.41,4.42,18.88,5.74,28.86,1.59,8.61-3.58,17.42-3.69,26.21-.21,4.56,1.8,8.81.89,12.61-2.09,8.16-6.39,15.17-6.61,23.65-.65,1.09.76,2.1,2.12,3.24,2.24,3.12.33,6.71,1.05,9.29-.16,1.7-.8,2.9-4.74,2.71-7.14-.85-10.44-7.04-17.25-16.3-21.43-10.11-4.56-20.99-4.4-31.76-5.02-9.45-.55-18.96-.82-28.3-2.21-6.76-1.01-13.04-3.99-16.81-10.43-3.39-5.79-3.26-13.19.36-17.88,3.86-4.99,10.2-6.93,17.08-4.48,4.17,1.48,7.86,4.25,11.98,5.89,6.08,2.42,12.26,4.81,18.61,6.23,2.31.51,6.3-1.14,7.54-3.08.9-1.4-.83-5.43-2.47-7.37-6.82-8.04-15.79-12.91-25.54-16.73-9.84-3.85-19.79-7.66-29.02-12.73-9.52-5.23-16.32-13.57-20.09-23.97-3.17-8.75-.69-16.94,5.81-20.07,7.13-3.43,14.67-.63,20.13,7.19,3.96,5.68,8.09,11.25,12.39,16.67,1.17,1.48,3.14,2.41,4.87,3.35,3.52,1.9,7.89,3.4,10.45-.16,1.79-2.48,2.24-7.03,1.36-10.09-1.55-5.34-4.68-10.2-6.96-15.35-.99-2.25-1.88-4.66-2.15-7.08-.75-6.86,2.68-12.68,8.4-14.92,6.47-2.53,15.7-.19,19.38,6.33,3.44,6.1,6.58,12.93,7.53,19.75,2.52,18.09,10.64,33.36,21.35,47.53,4.89,6.46,10.16,12.68,15.75,18.53,2.28,2.38,5.65,6.01,9.43,2.92,4.16-3.39,1.87-7.78-.4-11.23-2.73-4.15-6.21-7.79-9.24-11.75-2-2.62-4-5.28-5.56-8.16-2.12-3.93-1.71-7.77,1.92-10.74,3.33-2.72,8.43-2.64,12.03.37,2.54,2.12,4.52,4.94,7.1,7,1.25,1,2.87,1.53,4.46,2.11.83.3,1.76-.06,2.16-.85.75-1.48,1.61-2.99,1.36-4.27-1.89-9.36-3.85-18.75-6.58-27.89-4.4-14.73-14.17-26.03-24.44-37.1-6.84-7.37-13.07-15.48-18.51-23.94-4.22-6.56-5.82-14.38-5.34-22.43.48-8.02,5.07-13.66,12.26-14.79,7.24-1.14,14.01,3.14,16.52,10.63,2.2,6.57,3.87,13.34,6.43,19.76,1.24,3.11,3.64,5.99,6.12,8.33,4.35,4.09,8.47,3.38,11.49-1.82,4.37-7.51,4.23-15.76,3.88-24.18-.4-9.59-.92-19.37.55-28.77,1.7-10.94,10.91-16.23,21.37-14.21,8.74,1.69,14.92,10.98,12.98,21.08-3.96,20.6-8.99,41-13.02,61.59-.04.18-.03.36-.02.54.25,2.58-1.59,8.55.08,12.45,1.34,3.12,3.45,7.49,5.99,8.09,2.63.62,6.9-1.93,9.19-4.31,7.67-7.97,10.28-18.35,12.19-28.9.44-2.44.68-4.92,1.17-7.35,1.34-6.68,5.47-10.56,11.66-11.09,6.71-.57,11.89,2.64,14.33,9.12,3.98,10.54,1.86,20.98-2.74,30.4-5.36,10.96-11.75,21.59-18.94,31.45-11.1,15.21-16.6,31.62-14.41,50.37.44,3.74,1.29,7.55,2.69,11.03,2.49,6.19,5.99,7.26,11.79,3.91,13.73-7.93,24.14-19.23,32.27-32.67,6.94-11.48,9.94-24,10.44-37.43.21-5.59,1.91-11.53,4.46-16.53,3.79-7.42,12.88-9.84,20.31-6.65,6.75,2.9,10.09,10.25,7.55,18.51-1.79,5.82-4.77,11.27-7.04,16.95-1.16,2.9-2.69,5.95-2.65,8.92.03,2.43,1.59,5.59,3.52,6.98,1.43,1.03,5.24.57,6.76-.7,3.64-3.04,6.89-6.7,9.69-10.55,6.18-8.5,16.12-10.68,22.66-4.48,4.56,4.32,5.62,9.61,3.78,15.53-3.49,11.21-11.96,17.88-21.92,22.57-8.51,4.01-17.55,6.9-26.34,10.32-12.92,5.03-23.22,13.41-31.18,24.69-.75,1.06-1.19,2.33-1.75,3.84Z"/>
  </g>
</svg>
