<svg xmlns="http://www.w3.org/2000/svg" viewBox="0 0 500 500">
  <path d="
    M 238,170 
    L 238,126 
    A 20 20 0 1 1 262,126 
    L 262,170 
    L 335,170 
    A 35 35 0 0 1 370,205 
    L 370,225 
    A 12 12 0 0 1 382,237 
    L 382,263 
    A 12 12 0 0 1 370,275 
    L 370,315 
    A 35 35 0 0 1 335,350 
    L 165,350 
    A 35 35 0 0 1 130,315 
    L 130,275 
    A 12 12 0 0 1 118,263 
    L 118,237 
    A 12 12 0 0 1 130,225 
    L 130,205 
    A 35 35 0 0 1 165,170 
    Z" 
    fill="none" 
    stroke="currentColor" 
    stroke-width="12" 
    stroke-linecap="round" 
    stroke-linejoin="round"
  />
  <circle cx="202" cy="242" r="21" fill="currentColor" />
  <circle cx="298" cy="242" r="21" fill="currentColor" />
  <rect x="205" y="288" width="90" height="26" rx="13" fill="currentColor" />
</svg>