<svg xmlns="http://www.w3.org/2000/svg" viewBox="0 0 93.204 21.284" fill="currentColor">
  <path d="M4.906 20.398A14.7 14.7 0 0 1 0 17.808l3.556-3.86q3.521 2.513 7.473 2.513 1.284 0 1.975-.38.691-.382.691-1.063a.94.94 0 0 0-.312-.749 2.7 2.7 0 0 0-1.038-.464 65 65 0 0 0-2.567-.583A33 33 0 0 1 5.07 11.95a7 7 0 0 1-2.897-1.916Q1.097 8.802 1.097 6.765a5.9 5.9 0 0 1 1.105-3.563Q3.304 1.678 5.329.838T10.019 0q5.663 0 9.483 2.783l-3.193 4.1a12.9 12.9 0 0 0-3.227-1.54 10.9 10.9 0 0 0-3.236-.518q-1.12 0-1.714.38a1.164 1.164 0 0 0-.264 1.825 3 3 0 0 0 1.152.571q1.254.356 2.537.583c1.605.291 3.185.712 4.723 1.257q1.829.69 2.832 1.886 1.005 1.196 1.004 3.083 0 3.238-2.518 5.058-2.518 1.821-6.788 1.812a19.5 19.5 0 0 1-5.904-.882"/>
  <path d="M23.24 19.828a11.95 11.95 0 0 1-4.513-3.906 9.18 9.18 0 0 1 0-10.58 12 12 0 0 1 4.512-3.89A13.2 13.2 0 0 1 29.362 0c1.73-.01 3.446.313 5.053.953a12.5 12.5 0 0 1 4.133 2.666L33.84 7.361a6.2 6.2 0 0 0-1.992-1.523 5.6 5.6 0 0 0-2.476-.572A5.7 5.7 0 0 0 26.54 6a5.84 5.84 0 0 0-2.107 1.96 4.82 4.82 0 0 0-.79 2.666c-.003.95.272 1.88.79 2.678a5.84 5.84 0 0 0 7.441 2.14 6.1 6.1 0 0 0 2.008-1.523l4.675 3.712a12.7 12.7 0 0 1-4.133 2.68 13.64 13.64 0 0 1-11.175-.48z"/>
  <path d="M46.234 9.447V.496h-6.233V2.92a14.03 14.03 0 0 1 6.233 6.527"/>
  <path d="M46.234 11.723c-1.055-3.367-3.262-6.203-6.226-7.849V20.57h6.226zM46.932.463l8.595 10.77V.463h6.224V20.57h-6.224L46.93 9.8"/>
  <path fill-rule="evenodd" d="M75.926 15.448a7.3 7.3 0 0 1-1.796.922 5.7 5.7 0 0 1-1.887.337 3.1 3.1 0 0 1-1.974-.644 3.35 3.35 0 0 1-1.142-1.727h11.749q-.002-2.896-1.042-4.977a7.3 7.3 0 0 0-2.984-3.175q-1.935-1.097-4.602-1.097a10.14 10.14 0 0 0-4.57 1.01 7.86 7.86 0 0 0-3.193 2.796 7.71 7.71 0 0 0 .033 8.164 8.05 8.05 0 0 0 3.262 2.84 10.56 10.56 0 0 0 4.714 1.025c1.3-.006 2.591-.23 3.819-.66q1.923-.656 3.014-1.683zm-6.702-4.066c.228-.61.629-1.14 1.154-1.524a3.1 3.1 0 0 1 1.867-.556 2.66 2.66 0 0 1 1.698.556c.484.39.832.924.995 1.524z"/>
  <path d="M93.204 19.37c-.582.49-1.25.866-1.971 1.112-.73.279-1.504.428-2.286.44a6.4 6.4 0 0 1-2.918-.644 4.76 4.76 0 0 1-1.988-1.815 5.06 5.06 0 0 1-.706-2.667V9.893h-2.093V5.438h2.083V1.282h5.904v4.156h3.272v4.449h-3.274v4.8c-.015.408.129.807.402 1.111.255.289.625.45 1.01.44.292 0 .584-.039.866-.118.236-.055.456-.165.642-.322z"/>
</svg>
